<svg xmlns="http://www.w3.org/2000/svg" viewBox="0 0 1200 675" role="img" aria-labelledby="title desc">
  <title id="title">HappyRealm project profile picture</title>
  <desc id="desc">A castle and map icon for a Minecraft realm tracker.</desc>
  <rect width="1200" height="675" rx="42" fill="#121817"/>
  <rect x="230" y="440" width="740" height="82" rx="18" fill="#5fe08f" opacity=".34"/>
  <path d="M365 430V250h70v70h70v-70h70v70h70v-70h70v180z" fill="#f3c95b"/>
  <rect x="460" y="350" width="82" height="80" rx="10" fill="#101312"/>
  <rect x="650" y="350" width="82" height="80" rx="10" fill="#101312"/>
  <path d="M600 430v-98c0-34 28-62 62-62s62 28 62 62v98z" fill="#ff6f61"/>
  <path d="M260 195c110-62 224-62 340 0 116-62 230-62 340 0" stroke="#53d7e8" stroke-width="18" stroke-linecap="round" fill="none"/>
  <text x="600" y="112" text-anchor="middle" font-family="Arial, sans-serif" font-size="58" font-weight="900" fill="#f2f5ef">HAPPYREALM</text>
</svg>
