<svg xmlns="http://www.w3.org/2000/svg" viewBox="0 0 1200 675" role="img" aria-labelledby="title desc">
  <title id="title">MineCord project profile picture</title>
  <desc id="desc">A Minecraft block connected to a Discord chat bubble.</desc>
  <defs>
    <linearGradient id="bg" x1="0" y1="0" x2="1" y2="1">
      <stop offset="0" stop-color="#0f1b13"/>
      <stop offset=".52" stop-color="#163325"/>
      <stop offset="1" stop-color="#1b3b3e"/>
    </linearGradient>
  </defs>
  <rect width="1200" height="675" rx="42" fill="url(#bg)"/>
  <rect x="230" y="220" width="250" height="250" rx="16" fill="#6cc46f"/>
  <path d="M230 220h250v92H230z" fill="#3f8f45"/>
  <rect x="270" y="270" width="52" height="52" fill="#2b5e2e"/>
  <rect x="380" y="340" width="52" height="52" fill="#2b5e2e"/>
  <path d="M545 337h110" stroke="#f3c95b" stroke-width="18" stroke-linecap="round"/>
  <path d="M805 200c96 0 174 64 174 144s-78 144-174 144h-34l-78 58 20-76c-50-26-82-72-82-126 0-80 78-144 174-144z" fill="#53d7e8" opacity=".9"/>
  <circle cx="750" cy="340" r="18" fill="#102015"/>
  <circle cx="862" cy="340" r="18" fill="#102015"/>
  <path d="M750 396c42 24 82 24 124 0" stroke="#102015" stroke-width="16" stroke-linecap="round" fill="none"/>
  <text x="600" y="120" text-anchor="middle" font-family="Arial, sans-serif" font-size="62" font-weight="900" fill="#f2f5ef">MineCord</text>
</svg>
