<svg width="512" height="512" viewBox="0 0 512 512" fill="none" xmlns="http://www.w3.org/2000/svg">
  <rect width="512" height="512" rx="132" fill="#091116"/>
  <rect x="20" y="20" width="472" height="472" rx="112" stroke="url(#paint0_linear)" stroke-width="10"/>
  <circle cx="256" cy="256" r="168" fill="url(#paint1_radial)"/>
  <circle cx="256" cy="256" r="136" fill="#0D171D" stroke="#95E4FF" stroke-opacity="0.28" stroke-width="3"/>
  <path d="M177 178C204.724 153.536 227.61 144 256 144C284.39 144 307.276 153.536 335 178" stroke="#43D7FF" stroke-width="22" stroke-linecap="round"/>
  <path d="M154 248C193.5 219.333 227.5 205 256 205C284.5 205 318.5 219.333 358 248" stroke="#F3F7F8" stroke-width="18" stroke-linecap="round" stroke-linejoin="round"/>
  <path d="M184 305C206 334.333 230 349 256 349C282 349 306 334.333 328 305" stroke="#FF8A4C" stroke-width="20" stroke-linecap="round"/>
  <circle cx="209" cy="241" r="16" fill="#95E9FF"/>
  <circle cx="303" cy="241" r="16" fill="#95E9FF"/>
  <path d="M146 128L172 102" stroke="#FF8A4C" stroke-width="18" stroke-linecap="round"/>
  <path d="M366 102L340 128" stroke="#FF8A4C" stroke-width="18" stroke-linecap="round"/>
  <path d="M156 370C192.667 390.667 226 401 256 401C286 401 319.333 390.667 356 370" stroke="#43D7FF" stroke-opacity="0.85" stroke-width="12" stroke-linecap="round"/>
  <defs>
    <linearGradient id="paint0_linear" x1="52" y1="58" x2="454" y2="452" gradientUnits="userSpaceOnUse">
      <stop stop-color="#43D7FF"/>
      <stop offset="1" stop-color="#FF8A4C"/>
    </linearGradient>
    <radialGradient id="paint1_radial" cx="0" cy="0" r="1" gradientUnits="userSpaceOnUse" gradientTransform="translate(256 198) rotate(90) scale(226)">
      <stop stop-color="#15242C"/>
      <stop offset="1" stop-color="#0A1115"/>
    </radialGradient>
  </defs>
</svg>
